# xmcd
#
# Track frame offsets:
#	150
#	18332
#	35746
#	63259
#	82238
#	102344
#	118731
#	136635
#	154899
#	174139
#	192137
#	216702
#	235280
#	252606
#	267353
#	286072
#
# Disc length: 4047 seconds
#
# Revision: 1
# Processed by: cddbd v1.5.2PL0 Copyright (c) Steve Scherf et al.
# Submitted via: audiograbber 1.83.01
#
DISCID=e90fcd10
DTITLE=diverse - Greatest love of all
DYEAR=2005
DGENRE=Blues
TTITLE0=Elton John - Your Song
TTITLE1=Joe Cocker and Jennifer Warnes - Up where we belong
TTITLE2=10 CC - I´m not in love
TTITLE3=The Captain and Tennille - Do that to me one more time
TTITLE4=Joan Armatrading - Love and effection
TTITLE5=The Commodores - Three times a lady
TTITLE6=Gladys Knight and the Pips - The look aof love
TTITLE7=Jeffrey Osborne - On the wings of love
TTITLE8=The Commodores - Easy
TTITLE9=Omar - There´s nothing like this
TTITLE10=Thte Stylistics - You make me feel brand new
TTITLE11=Lionel Richie - Hello
TTITLE12=Boyz - I´ll make love to you
TTITLE13=Boyzone - Baby can I hold you tonight
TTITLE14=Love Unlimited Orchestra - Love´s theme
TTITLE15=Barry White - Gonna love you just a little bit more
EXTD=
EXTT0=
EXTT1=
EXTT2=
EXTT3=
EXTT4=
EXTT5=
EXTT6=
EXTT7=
EXTT8=
EXTT9=
EXTT10=
EXTT11=
EXTT12=
EXTT13=
EXTT14=
EXTT15=
PLAYORDER=
